<svg xmlns="http://www.w3.org/2000/svg" viewBox="0 0 1536 1024" role="img" aria-labelledby="title desc">
  <title id="title">Premium AI palm report visual</title>
  <desc id="desc">Abstract report cards with palm-line diagrams and glowing AI scan elements.</desc>
  <defs>
    <radialGradient id="report-bg" cx="50%" cy="38%" r="70%"><stop offset="0%" stop-color="#2a1a40"/><stop offset="55%" stop-color="#111116"/><stop offset="100%" stop-color="#050507"/></radialGradient>
    <linearGradient id="panel" x1="0%" y1="0%" x2="100%" y2="100%"><stop offset="0%" stop-color="#ffffff" stop-opacity=".13"/><stop offset="100%" stop-color="#ffffff" stop-opacity=".035"/></linearGradient>
    <linearGradient id="gold" x1="0%" y1="0%" x2="100%" y2="100%"><stop offset="0%" stop-color="#f2d492"/><stop offset="100%" stop-color="#a78246"/></linearGradient>
    <filter id="glow" x="-30%" y="-30%" width="160%" height="160%"><feGaussianBlur stdDeviation="18" result="blur"/><feMerge><feMergeNode in="blur"/><feMergeNode in="SourceGraphic"/></feMerge></filter>
  </defs>
  <rect width="1536" height="1024" fill="url(#report-bg)"/>
  <circle cx="800" cy="500" r="410" fill="#80edf3" opacity=".08" filter="url(#glow)"/>
  <g opacity=".92"><rect x="210" y="210" width="390" height="560" rx="34" fill="url(#panel)" stroke="#ffffff" stroke-opacity=".12"/><rect x="570" y="150" width="420" height="640" rx="38" fill="url(#panel)" stroke="#c5a46b" stroke-opacity=".26"/><rect x="940" y="240" width="380" height="520" rx="34" fill="url(#panel)" stroke="#ffffff" stroke-opacity=".11"/></g>
  <g fill="none" stroke-linecap="round"><path d="M300 382c74-52 150-52 232 0" stroke="url(#gold)" stroke-width="7"/><path d="M295 468c93-64 180-64 276-4" stroke="#80edf3" stroke-width="5" opacity=".65"/><path d="M406 292c-24 156-14 295 44 408" stroke="url(#gold)" stroke-width="6" opacity=".72"/><path d="M704 338c112-78 246-78 350 4" stroke="url(#gold)" stroke-width="8"/><path d="M692 455c148-95 284-94 424 0" stroke="#80edf3" stroke-width="6" opacity=".68"/><path d="M840 250c-40 196-24 360 62 500" stroke="url(#gold)" stroke-width="7" opacity=".74"/><path d="M1016 326c-76 118-102 254-72 408" stroke="#80edf3" stroke-width="5" opacity=".52"/></g>
  <g fill="none" opacity=".8"><circle cx="1136" cy="430" r="92" stroke="#80edf3" stroke-width="5"/><circle cx="1136" cy="430" r="58" stroke="#c5a46b" stroke-width="7"/><path d="M1034 606h180M1034 650h238M1034 694h128" stroke="#fff" stroke-opacity=".16" stroke-width="12" stroke-linecap="round"/><path d="M288 620h155M288 664h224M288 708h118" stroke="#fff" stroke-opacity=".14" stroke-width="11" stroke-linecap="round"/></g>
  <g fill="#80edf3" opacity=".38"><circle cx="182" cy="148" r="4"/><circle cx="1298" cy="156" r="3"/><circle cx="1390" cy="850" r="4"/><circle cx="146" cy="822" r="3"/><circle cx="760" cy="92" r="3"/></g>
</svg>
